<svg xmlns="http://www.w3.org/2000/svg" viewBox="0 0 201.89 337.97"><defs><style>.cls-1{fill:#2faced;}.cls-2{fill:#fff;}</style></defs><title>martianAsset 12</title><g id="Layer_2" data-name="Layer 2"><g id="body"><path class="cls-1" d="M56,183.25c-19.72,24.57-30,76.48-30,76.48s50.66-23.75,71.72-50"/><path d="M56,183.25a117.91,117.91,0,0,0-9.7,18.14c-.65,1.58-1.34,3.15-2,4.72l-1.83,4.8c-.63,1.59-1.16,3.22-1.74,4.83s-1.16,3.22-1.67,4.85q-3.21,9.75-5.83,19.69c-1.72,6.61-3.44,13.29-4.76,19.93l-3.49-2.73c6.49-3.14,13-6.51,19.35-10.05s12.69-7.16,18.87-11c1.57-.93,3.07-1.95,4.6-2.93s3.06-2,4.55-3l4.51-3.08,4.39-3.24a136,136,0,0,0,16.49-14.39,100.11,100.11,0,0,1-14.9,16.33,183.29,183.29,0,0,1-17.46,13.65c-1.52,1-3,2.11-4.57,3.13l-4.66,3c-3.13,2-6.27,3.9-9.47,5.74q-2.39,1.39-4.83,2.71T37,256.95c-3.27,1.73-6.51,3.45-9.91,5l-4.5,2.09,1-4.82c.73-3.46,1.53-6.81,2.39-10.18s1.74-6.73,2.76-10c2-6.65,4.13-13.27,6.72-19.72.6-1.63,1.29-3.23,2-4.83s1.33-3.21,2.09-4.78L41.71,205c.81-1.54,1.6-3.09,2.43-4.62A89.5,89.5,0,0,1,56,183.25Z"/><path class="cls-1" d="M146,183.25c19.88,24.77,29.08,76.6,29.08,76.6s-49.58-23.65-70.81-50.09"/><path d="M146,183.25a87.16,87.16,0,0,1,11.77,17.09l2.39,4.63,2.18,4.73c.75,1.57,1.4,3.18,2,4.79s1.33,3.21,1.91,4.85c2.52,6.47,4.54,13.12,6.44,19.78.48,1.67.95,3.34,1.36,5s.84,3.36,1.24,5.05c.8,3.38,1.54,6.74,2.2,10.21l.91,4.77L174,262.09c-3.36-1.59-6.56-3.32-9.79-5.06q-2.42-1.3-4.81-2.66t-4.77-2.73c-3.16-1.86-6.26-3.81-9.34-5.78l-4.6-3-4.51-3.15A185.72,185.72,0,0,1,118.94,226a102.82,102.82,0,0,1-14.69-16.28,141.62,141.62,0,0,0,16.3,14.35l4.34,3.25c1.47,1,3,2.06,4.45,3.09s3,2,4.49,3,3,2,4.54,2.95q9.15,5.8,18.63,11.07c6.27,3.56,12.7,7,19.12,10.11l-3.52,2.68c-1.19-6.65-2.79-13.34-4.41-20s-3.48-13.21-5.55-19.72c-.48-1.64-1.06-3.24-1.61-4.86s-1.08-3.24-1.69-4.83l-1.79-4.8-2-4.72A114,114,0,0,0,146,183.25Z"/><path class="cls-1" d="M44.67,238.82c0-53.52,56.89-132.79,56.89-132.79s54.7,75.66,54.7,132.79"/><path d="M44.67,238.82a94.81,94.81,0,0,1,1.21-18.28,144.87,144.87,0,0,1,4-17.94,248,248,0,0,1,13-34.38c5.06-11.17,10.84-22,16.92-32.61,3-5.31,6.26-10.53,9.53-15.7S96,109.64,99.53,104.57l2-2.89,2,2.88c3.56,5,6.87,10.12,10.12,15.29s6.4,10.38,9.39,15.69,5.87,10.69,8.62,16.12c1.38,2.72,2.72,5.46,4,8.21s2.56,5.53,3.76,8.34c2.43,5.59,4.75,11.24,6.77,17s3.91,11.56,5.43,17.48c3.07,11.79,5,24,4.55,36.14a141.19,141.19,0,0,0-6.9-35.46c-1.78-5.75-3.87-11.41-6.14-17-1.12-2.8-2.32-5.56-3.5-8.33s-2.45-5.5-3.77-8.22q-7.77-16.32-17-31.92c-6.09-10.38-12.53-20.66-19.46-30.41h4.06c-7,9.83-13.48,20.13-19.69,30.53q-4.68,7.8-9.06,15.77T66.42,169.9c-2.72,5.42-5.2,10.94-7.62,16.5s-4.58,11.22-6.55,16.94a153.77,153.77,0,0,0-5,17.46l-.5,2.22c-.16.74-.27,1.49-.41,2.24-.24,1.5-.59,3-.74,4.49s-.43,3-.57,4.52Z"/><path class="cls-1" d="M44.67,238c0,37.2,29.07,94.25,29.07,94.25s28-54.54,28-94.25"/><path d="M44.67,238A138.31,138.31,0,0,0,49,262.34l1.62,5.95,1.84,5.89c.59,2,1.3,3.9,1.95,5.85s1.31,3.9,2,5.82q4.24,11.59,9.15,22.92c3.25,7.54,6.64,15.1,10.32,22.38H71.52c3.67-7.24,7-14.78,10.2-22.32s6.16-15.2,8.88-22.93c.71-1.93,1.3-3.89,2-5.83l1-2.92.88-2.94c.57-2,1.22-3.92,1.74-5.9l1.54-6a155.3,155.3,0,0,0,4-24.31,118.74,118.74,0,0,1-1.63,24.8,207.77,207.77,0,0,1-5.76,24.25l-1.84,6c-.64,2-1.35,3.93-2,5.89s-1.41,3.91-2.13,5.86-1.46,3.89-2.23,5.82-1.54,3.86-2.36,5.76-1.63,3.82-2.48,5.72c-1.68,3.81-3.41,7.55-5.29,11.33l-2.23,4.48-2.22-4.48c-1.87-3.78-3.61-7.53-5.32-11.34-.85-1.9-1.7-3.8-2.51-5.72s-1.65-3.82-2.4-5.76c-3.07-7.74-6.05-15.52-8.48-23.49a204,204,0,0,1-6.16-24.22C45.21,254.67,44.2,246.33,44.67,238Z"/><path class="cls-1" d="M100,238c0,37.2,28.7,94.25,28.7,94.25s27.59-54.54,27.59-94.25"/><path d="M100,238a140.33,140.33,0,0,0,4.32,24.29l1.6,5.95,1.82,5.89c.58,2,1.29,3.9,1.92,5.85s1.29,3.9,2,5.82q4.19,11.59,9,22.93c3.21,7.55,6.56,15.11,10.2,22.4h-4.46c3.63-7.25,6.94-14.8,10.08-22.35s6.08-15.21,8.78-22.94c.7-1.93,1.28-3.89,1.93-5.83l.95-2.92.87-2.94c.57-2,1.2-3.92,1.72-5.9l1.52-6a157.67,157.67,0,0,0,4-24.29,120,120,0,0,1-1.58,24.78A209.82,209.82,0,0,1,149,287l-1.81,6c-.63,2-1.33,3.93-2,5.89s-1.39,3.91-2.1,5.86-1.44,3.89-2.2,5.82-1.52,3.86-2.33,5.77-1.6,3.83-2.45,5.72c-1.66,3.81-3.37,7.56-5.23,11.34L128.66,338l-2.22-4.57c-3.66-7.54-7-15.12-10.1-22.84s-6-15.52-8.36-23.5a205.71,205.71,0,0,1-6.07-24.21C100.49,254.65,99.5,246.32,100,238Z"/></g><g id="Layer_3" data-name="Layer 3"><polygon class="cls-1" points="101.69 15.68 33.1 65.52 59.3 146.16 144.09 146.16 170.28 65.52 101.69 15.68"/><path class="cls-1" d="M76.48,143.91c0,17.56,26,44.5,26,44.5s25-25.75,25-44.5"/><path d="M76.48,143.91A36.29,36.29,0,0,0,80.84,156a99.87,99.87,0,0,0,6.93,10.84c2.55,3.46,5.2,6.86,8,10.16s5.63,6.58,8.54,9.65h-3.59c1.43-1.48,2.88-3.1,4.27-4.7s2.78-3.23,4.14-4.88c2.72-3.29,5.29-6.69,7.75-10.16a90.87,90.87,0,0,0,6.59-10.9,38.6,38.6,0,0,0,4-12.12c.52,4.37-.42,8.85-1.78,13.05a66.46,66.46,0,0,1-2.48,6.17c-.93,2-2,4-3.08,5.88a102.92,102.92,0,0,1-7.32,11,121.41,121.41,0,0,1-8.54,10.13l-1.8,1.9-1.8-1.91c-3.09-3.28-5.92-6.64-8.64-10.16a111.77,111.77,0,0,1-7.53-11,72.7,72.7,0,0,1-5.91-12,43,43,0,0,1-1.81-6.47A21.88,21.88,0,0,1,76.48,143.91Z"/><path class="cls-1" d="M54.48,127.76c-16.7,5.43-51-10.74-51-10.74s17.17-32.45,35-38.24"/><path d="M54.48,127.76A22.17,22.17,0,0,1,48,129.52a44.16,44.16,0,0,1-6.77.29A75,75,0,0,1,27.85,128a115.55,115.55,0,0,1-12.93-3.68c-4.24-1.47-8.37-3.09-12.51-5L0,118.18l1.27-2.33a126.06,126.06,0,0,1,7.08-11.43,106.71,106.71,0,0,1,8.29-10.55c1.51-1.66,3-3.3,4.68-4.84s3.36-3,5.15-4.37c3.61-2.65,7.62-5,12-5.89a38.58,38.58,0,0,0-10.4,7.75,93.65,93.65,0,0,0-8.42,9.83c-2.57,3.48-5,7-7.36,10.7-1.16,1.83-2.31,3.67-3.41,5.53s-2.21,3.75-3.2,5.6l-1.14-3.43c3.89,1.79,8,3.48,12,5.06s8.17,3,12.31,4.37a103.75,103.75,0,0,0,12.62,3.19A37,37,0,0,0,54.48,127.76Z"/><path class="cls-1" d="M45.48,56.79c-10.32-14.21-5-51.14-5-51.14s36,5.7,47,20.87"/><path d="M45.48,56.79a21.81,21.81,0,0,1-3.64-5.55A42.5,42.5,0,0,1,39.52,45a72,72,0,0,1-2.24-13.14A110.83,110.83,0,0,1,37,18.55c.14-4.43.47-8.79,1.06-13.26l.33-2.55,2.53.43a122.09,122.09,0,0,1,13,3,103.7,103.7,0,0,1,12.56,4.45c2,.9,4.07,1.82,6,2.88s3.88,2.22,5.73,3.49c3.63,2.58,7.1,5.64,9.27,9.52A37.62,37.62,0,0,0,77,19.11a90.21,90.21,0,0,0-11.9-4.83C61,13,56.84,11.78,52.66,10.76c-2.09-.51-4.18-1-6.29-1.44s-4.23-.88-6.28-1.21L43,6c-.57,4.18-1,8.51-1.28,12.78s-.47,8.58-.51,12.87a98.8,98.8,0,0,0,.74,12.81A36,36,0,0,0,45.48,56.79Z"/><path class="cls-1" d="M158.48,57.79c10.32-14.21,5-51.14,5-51.14s-36,5.7-47,20.87"/><path d="M158.48,57.79a35.23,35.23,0,0,0,3.81-12.27,94.9,94.9,0,0,0,.89-12.84c0-4.3-.1-8.61-.42-12.91s-.66-8.63-1.26-12.83l2.29,1.69c-4.19.68-8.45,1.63-12.62,2.68s-8.32,2.27-12.41,3.61a87,87,0,0,0-11.88,5,36.75,36.75,0,0,0-10.4,7.62c2.26-3.8,5.74-6.79,9.39-9.3,1.85-1.23,3.78-2.36,5.74-3.4s4-1.94,6-2.81A112.57,112.57,0,0,1,150.2,7.64c4.27-1.19,8.54-2.18,13-3l2-.36.26,2c.55,4.44.91,8.79,1.08,13.21a120.58,120.58,0,0,1-.24,13.23,73.82,73.82,0,0,1-2.09,13.11A43,43,0,0,1,162,52.19,22.4,22.4,0,0,1,158.48,57.79Z"/><path class="cls-1" d="M148.48,127.76c16.7,5.43,50-10.74,50-10.74s-16.17-32.45-34-38.24"/><path d="M148.48,127.76a36.42,36.42,0,0,0,12.77-.36,98.93,98.93,0,0,0,12.37-3.17q6.08-2,12-4.37c4-1.59,7.94-3.28,11.73-5.08l-1.15,3.36c-.93-1.84-2-3.75-3-5.6s-2.14-3.71-3.25-5.54c-2.22-3.66-4.59-7.22-7.07-10.7a88.27,88.27,0,0,0-8.18-9.81,37.09,37.09,0,0,0-10.23-7.7c4.33.86,8.3,3.2,11.86,5.86a66.36,66.36,0,0,1,5,4.37c1.6,1.54,3.1,3.19,4.56,4.85a102,102,0,0,1,8,10.58,120,120,0,0,1,6.75,11.46l1.17,2.27-2.32,1.09c-4.05,1.9-8.09,3.54-12.25,5A110.19,110.19,0,0,1,174.64,128a71.91,71.91,0,0,1-13.14,1.85,42.6,42.6,0,0,1-6.65-.31A22,22,0,0,1,148.48,127.76Z"/><path class="cls-1" d="M76.48,47.16c0-17.56,26-43.58,26-43.58s25,24.83,25,43.58"/><path d="M76.48,47.16a21.52,21.52,0,0,1,.31-6.55,41.35,41.35,0,0,1,1.79-6.38c.79-2.06,1.7-4.07,2.68-6s2.11-3.86,3.24-5.74A106.89,106.89,0,0,1,92,11.7a129.12,129.12,0,0,1,8.67-9.89L102.48,0l1.77,1.8a115.56,115.56,0,0,1,8.58,9.86,97.85,97.85,0,0,1,7.35,10.77c1.09,1.89,2.15,3.8,3.08,5.77a62.25,62.25,0,0,1,2.48,6.08,30.26,30.26,0,0,1,1.75,12.87,37.52,37.52,0,0,0-4-11.93,85.73,85.73,0,0,0-6.57-10.68c-2.46-3.39-5-6.71-7.76-9.91-1.36-1.6-2.73-3.19-4.15-4.74s-2.85-3.12-4.28-4.55h3.53c-2.92,3-5.79,6.17-8.55,9.37s-5.42,6.53-8,9.91a94.9,94.9,0,0,0-6.91,10.62A35.33,35.33,0,0,0,76.48,47.16Z"/><path class="cls-1" d="M129.48,50.16c17-4.55,50,13.81,50,13.81s-17.89,31.33-36,36.19"/><path d="M129.48,50.16a21.78,21.78,0,0,1,6.55-1.4,43.22,43.22,0,0,1,6.75.1A73.35,73.35,0,0,1,156,51.52,113.14,113.14,0,0,1,168.59,56c4.12,1.74,8.12,3.62,12.11,5.78L183,63l-1.3,2.2a120,120,0,0,1-7.38,11,101.75,101.75,0,0,1-8.58,10.08c-1.56,1.57-3.13,3.13-4.82,4.58A65.18,65.18,0,0,1,155.6,95c-3.68,2.45-7.76,4.56-12.12,5.19A37.31,37.31,0,0,0,154.1,93a88.36,88.36,0,0,0,8.7-9.31c2.66-3.32,5.22-6.74,7.64-10.26s4.77-7.13,6.88-10.74l1,3.42c-1.84-1-3.8-2-5.74-3s-3.9-1.91-5.86-2.83c-3.93-1.85-7.92-3.54-11.95-5.13a100.67,100.67,0,0,0-12.34-3.95A36.16,36.16,0,0,0,129.48,50.16Z"/><path class="cls-1" d="M73.48,50.16c-17-4.55-50,12.81-50,12.81s18.89,32.33,37,37.19"/><path d="M73.48,50.16a37.66,37.66,0,0,0-12.85,1,103.74,103.74,0,0,0-12.35,3.69q-6.06,2.24-12,4.85c-3.93,1.74-7.89,3.58-11.65,5.52l1-3.47c1.09,1.82,2.28,3.71,3.48,5.53s2.43,3.66,3.68,5.45c2.5,3.61,5.15,7.1,7.89,10.52a94.27,94.27,0,0,0,8.92,9.59,37.92,37.92,0,0,0,10.87,7.35c-4.48-.66-8.64-2.89-12.41-5.42-1.86-1.31-3.65-2.73-5.38-4.21s-3.33-3.09-4.93-4.71A108.37,108.37,0,0,1,29,75.49a128.2,128.2,0,0,1-7.63-11.26L20,62l2.35-1.2c4-2,8-3.83,12.17-5.45a114.19,114.19,0,0,1,12.64-4.18,74.6,74.6,0,0,1,13.15-2.4,44,44,0,0,1,6.71,0A22.54,22.54,0,0,1,73.48,50.16Z"/><path class="cls-1" d="M58.48,102.16c-10.07,14.39-5,52-5,52s36.25-6.64,47-22"/><path d="M58.48,102.16A37.67,37.67,0,0,0,55,114.72a105.79,105.79,0,0,0-.73,13c0,4.36.18,8.72.48,13.08s.67,8.74,1.21,13L53,151.7c2.06-.38,4.21-.87,6.31-1.37s4.22-1,6.31-1.59c4.2-1.12,8.34-2.41,12.43-3.82A92.54,92.54,0,0,0,90,139.82a38,38,0,0,0,10.48-7.66c-2.13,3.94-5.58,7.08-9.19,9.74-1.84,1.3-3.76,2.5-5.71,3.62s-4,2.08-6,3A106.24,106.24,0,0,1,67,153.29a125.79,125.79,0,0,1-13,3.33l-2.6.51L51,154.49c-.55-4.53-.86-9-1-13.45a117,117,0,0,1,.37-13.46,76.11,76.11,0,0,1,2.22-13.34,44.85,44.85,0,0,1,2.29-6.39A22.44,22.44,0,0,1,58.48,102.16Z"/><path class="cls-1" d="M146.48,102.16c10.07,14.39,4,52,4,52s-35.25-6.64-46-22"/><path d="M146.48,102.16a21.68,21.68,0,0,1,3.57,5.71,43.43,43.43,0,0,1,2.21,6.42,73.86,73.86,0,0,1,2,13.38,114.23,114.23,0,0,1,.06,13.47c-.24,4.49-.65,8.91-1.33,13.42l-.39,2.57-2.54-.52a120.56,120.56,0,0,1-12.81-3.36,102.54,102.54,0,0,1-12.31-4.79c-2-.95-4-1.92-5.89-3a65.43,65.43,0,0,1-5.58-3.62,31,31,0,0,1-9-9.65,38.37,38.37,0,0,0,10.26,7.6,90.28,90.28,0,0,0,11.65,5.13q6,2.14,12.18,3.84c4.09,1.12,8.29,2.17,12.38,3L148,153.76c.33-2.09.61-4.29.85-6.45s.48-4.34.67-6.51c.41-4.35.64-8.7.77-13.05a101.21,101.21,0,0,0-.48-13A36,36,0,0,0,146.48,102.16Z"/></g><g id="eyes"><ellipse cx="102.6" cy="73.93" rx="22.04" ry="10.45"/><ellipse cx="103.08" cy="108.45" rx="21.82" ry="10.85"/><path d="M102.37,87.53c-7.56,0-24.24-11-26.11-12.37l-2.06-1.5,2.06-1.5c1.88-1.36,18.55-12.37,26.11-12.37s24.24,11,26.11,12.37l2.06,1.5-2.06,1.5C126.61,76.52,109.94,87.53,102.37,87.53ZM80.56,73.66c5.92,4.08,17.08,10.17,21.82,10.17s15.9-6.09,21.82-10.17c-5.92-4.08-17.08-10.17-21.82-10.17S86.47,69.58,80.56,73.66Z"/><circle class="cls-2" cx="101.95" cy="73.66" r="11.05"/><path d="M102.87,122.53c-7.56,0-24.24-11-26.11-12.37l-2.06-1.5,2.06-1.5c1.88-1.36,18.55-12.37,26.11-12.37s24.24,11,26.11,12.37l2.06,1.5-2.06,1.5C127.11,111.52,110.44,122.53,102.87,122.53ZM81.06,108.66c5.92,4.08,17.08,10.17,21.82,10.17s15.9-6.09,21.82-10.17c-5.92-4.08-17.08-10.17-21.82-10.17S87,104.58,81.06,108.66Z"/><circle class="cls-2" cx="102.45" cy="108.66" r="11.05"/></g></g></svg>