<svg xmlns="http://www.w3.org/2000/svg" viewBox="0 0 183.45 182.34"><defs><style>.cls-1{fill:#983eeb;}</style></defs><title>Asset 1</title><g id="Layer_2" data-name="Layer 2"><g id="Layer_1-2" data-name="Layer 1"><path d="M76.63,2.41c1.3-.69,2.59-2,3.91-2,15-.48,30.14-.63,44.28,5.2a96.91,96.91,0,0,1,29.3,18.59,88.46,88.46,0,0,1,26.81,46.25c6.48,28.65.43,54.74-17.92,78a87.22,87.22,0,0,1-27.67,23.31c-11.41,6.05-23.59,10.45-36.83,10.58-11.52.11-22.9.05-34.16-3.75a96.51,96.51,0,0,1-31-16.88C17,148.19,6.67,130.83,2.13,110.3A84,84,0,0,1,1.07,78.19c2.43-15,8.17-28.05,16.33-40.42,1.06-1.61,2.35-3.07,4-5.16,3.24,3.76,2.77,7.57,1.31,10.82C19,51.7,13.88,59.44,10.92,68,7,79,7.56,90.88,8.6,102.46c1.33,14.82,7.31,27.94,16.27,39.72,11.28,14.83,25.74,25.39,43.83,30,12.88,3.25,26,4.3,39.44,1.57a84,84,0,0,0,66.38-66c4.76-23.82-.43-45.5-14.07-65.17-13-18.78-31.33-29.81-53.63-34C101,7.37,94.95,8,89.07,7.22c-4.22-.53-8.32-2-12.47-3.07Z"/><path d="M147.81,117a71.5,71.5,0,0,1,8.41,1.5c1.26.36,2.18,1.9,3.26,2.91a22.8,22.8,0,0,1-3.13,3c-4.78,3.1-9.75,5.92-14.41,9.18-1.51,1.05-3.22,3.09-3.27,4.73-.24,7.86-6.52,9-11.79,10.82-9.69,3.39-18.12,8.19-23.49,17.34-.44.75-2.07,1.6-2.67,1.34C89,162.59,77.41,157.25,65.48,151.82c8.79-19.69,8.93-40.35,7.52-61.16l-1.73-.78c-3.18,3.63-7.3,6.8-9.33,11-3.46,7.12-9.29,7.71-15.19,6.21-7-1.78-13.71-5-20.41-7.89-1.23-.53-1.87-2.43-2.78-3.7,1.29-.73,2.5-1.85,3.88-2.14,8.43-1.78,16.95-3.16,25.34-5.1,4-.93,7.84-2.8,12.16-4.41C60.5,80.64,56.41,78.05,52.72,75,36,61.15,28.3,42.76,26.59,21.57a26.22,26.22,0,0,1,1.12-10.23C29.36,6.47,32.15,2.54,38,1.19A39.3,39.3,0,0,1,63,3.1C77.63,9.28,92.7,14.57,107,21.53c6.56,3.2,12.33,8.85,17.2,14.48s8.14,12.83,12.43,19.12a9.31,9.31,0,0,0,5.09,3.1c3.16.83,5.22,2.47,4.73,5.73-.59,4-1.87,7.82-2.77,11.74a10,10,0,0,0-.39,3.95c1.66,8.62,3.76,17.16,5.1,25.83C148.94,109.23,148,113.2,147.81,117ZM27.9,96.95c7.89,2.88,14.59,5.56,21.45,7.73,3,1,5.55-.3,7.58-3.26,6-8.77,13.54-15.81,24-18.9,2.94-.86,6.05-1.7,9.44,1.87-2.45.23-3.76.24-5,.49-7,1.43-10.11,4.93-9.35,9.93,2.61,17.19.63,34-5,50.34-1.25,3.65-.81,5.54,2.62,7.09,8.88,4,17.69,8.15,26.67,12.3,2.54-2.86,4.95-6,7.77-8.65,6.28-5.94,14-9.16,22.23-11.45,1.81-.5,3.24-2.95,4.49-4.74,1.56-2.25,2.23-5.38,4.21-7,4-3.34,8.66-5.94,13.06-8.83,1.37-.9,2.78-1.76,4.17-2.64l-.64-1.36c-8.75.64-17.39,1.41-24.79,7.37a34,34,0,0,1-22.16,7.38c-2.83,0-6.54-1.45-8.25-3.54-3.85-4.68-6.91-10.06-9.9-15.37-2.62-4.66-2.16-6.11,1.66-10.27,5.9,8.89,12.63,14.9,24.1,13.4,8.94-1.17,17.82-2.87,26.68-4.63.9-.18,2.07-2.41,2-3.61-.52-6.92-.54-14-2.37-20.63-1.52-5.49-5.49-10.26-8-15.54-.8-1.71-1.13-4.56-.23-6C136,66,138.75,64.19,141.18,62c-6.11-1.15-8.85-5.61-10.87-10.7-5.55-14-16.32-23.17-29.39-29.39-10.73-5.1-22.14-8.77-33.26-13-4.93-1.89-9.75-4.6-14.86-5.4-14-2.19-19.31.5-21.21,10.7C30.5,20,30.35,26.66,32,32.32c2.67,9.11,6.74,17.91,11.06,26.41A43.68,43.68,0,0,0,66.51,80c1.35.53,3.26-.38,4.92-.62-.25-1.49,0-3.32-.84-4.41a49.3,49.3,0,0,0-5.76-6c-2.54-2.44-5.3-4.76-3-8.8,5.25-.37,13.68,5.69,16.2,11.27,1.65,3.65.87,6.79-2.25,8.72C70,83.66,64.29,87.57,58,89.65,48.74,92.73,39,94.35,27.9,96.95Z"/><path class="cls-1" d="M27.9,96.95C39,94.35,48.74,92.73,58,89.65c6.28-2.08,12-6,17.74-9.51,3.12-1.92,3.9-5.06,2.25-8.72-2.52-5.58-10.94-11.64-16.2-11.27-2.27,4,.48,6.36,3,8.8a49.3,49.3,0,0,1,5.76,6c.8,1.09.59,2.92.84,4.41-1.65.24-3.57,1.16-4.92.62A43.68,43.68,0,0,1,43.07,58.73C38.75,50.23,34.68,41.43,32,32.32c-1.66-5.66-1.51-12.32-.42-18.2,1.9-10.2,7.19-12.89,21.21-10.7,5.11.8,9.93,3.5,14.86,5.4,11.12,4.27,22.53,7.94,33.26,13C114,28.07,124.75,37.2,130.31,51.25c2,5.1,4.76,9.55,10.87,10.7-2.43,2.24-5.14,4-6.75,6.51-.9,1.39-.57,4.24.23,6,2.47,5.28,6.44,10.05,8,15.54,1.83,6.6,1.85,13.72,2.37,20.63.09,1.19-1.08,3.43-2,3.61-8.85,1.76-17.73,3.46-26.68,4.63-11.47,1.5-18.19-4.51-24.1-13.4C88.41,109.59,88,111,90.58,115.7c3,5.31,6,10.69,9.9,15.37,1.72,2.09,5.43,3.5,8.25,3.54a34,34,0,0,0,22.16-7.38c7.4-6,16-6.73,24.79-7.37l.64,1.36c-1.39.88-2.79,1.74-4.17,2.64-4.39,2.89-9,5.49-13.06,8.83-2,1.64-2.65,4.77-4.21,7-1.25,1.8-2.68,4.24-4.49,4.74-8.26,2.29-16,5.51-22.23,11.45-2.83,2.67-5.23,5.79-7.77,8.65-9-4.15-17.8-8.3-26.67-12.3-3.44-1.55-3.88-3.44-2.62-7.09,5.61-16.34,7.59-33.15,5-50.34-.76-5,2.36-8.5,9.35-9.93,1.25-.26,2.56-.26,5-.49C87,80.82,83.92,81.66,81,82.52c-10.51,3.09-18,10.13-24,18.9-2,3-4.55,4.22-7.58,3.26C42.5,102.51,35.79,99.83,27.9,96.95ZM98.7,62.24c-2.1,11,.66,19.19,7.65,23,2.79,1.52,8.77.5,11.4-2.53C110.2,85,106,81.31,102.3,76.41c5,1.16,9.65,2.52,14.44,3.23,1.56.23,4.83-1.33,4.8-1.93-.13-2.22-.74-4.94-2.22-6.44-2.39-2.42-6-3.66-8.4-6.05C107.24,61.6,103.18,61.41,98.7,62.24Z"/><path d="M98.7,62.24c4.48-.83,8.54-.64,12.23,3,2.43,2.39,6,3.63,8.4,6.05,1.48,1.5,2.09,4.22,2.22,6.44,0,.6-3.24,2.16-4.8,1.93-4.79-.71-9.49-2.07-14.44-3.23,3.69,4.9,7.9,8.6,15.45,6.29-2.63,3-8.61,4-11.4,2.53C99.36,81.43,96.59,73.28,98.7,62.24Z"/></g></g></svg>